<svg width="32" height="32" viewBox="0 0 32 32" fill="none" xmlns="http://www.w3.org/2000/svg">
<rect width="32" height="32" rx="16" fill="#1A6AFF"/>
<path d="M9.87988 17.3154H7.7793V22H5.14258V9.20312H9.89746C11.4092 9.20312 12.5752 9.54004 13.3955 10.2139C14.2158 10.8877 14.626 11.8398 14.626 13.0703C14.626 13.9434 14.4355 14.6729 14.0547 15.2588C13.6797 15.8389 13.1084 16.3018 12.3408 16.6475L15.1094 21.877V22H12.2793L9.87988 17.3154ZM7.7793 15.1797H9.90625C10.5684 15.1797 11.0811 15.0127 11.4443 14.6787C11.8076 14.3389 11.9893 13.873 11.9893 13.2812C11.9893 12.6777 11.8164 12.2031 11.4707 11.8574C11.1309 11.5117 10.6064 11.3389 9.89746 11.3389H7.7793V15.1797ZM26.3242 9.20312V17.6318C26.3242 19.0322 25.8848 20.1396 25.0059 20.9541C24.1328 21.7686 22.9375 22.1758 21.4199 22.1758C19.9258 22.1758 18.7393 21.7803 17.8604 20.9893C16.9814 20.1982 16.5332 19.1113 16.5156 17.7285V9.20312H19.1523V17.6494C19.1523 18.4873 19.3516 19.0996 19.75 19.4863C20.1543 19.8672 20.7109 20.0576 21.4199 20.0576C22.9023 20.0576 23.6553 19.2783 23.6787 17.7197V9.20312H26.3242Z" fill="white"/>
</svg>
