<svg width="1920" height="1050" viewBox="0 0 1920 1050" fill="none" xmlns="http://www.w3.org/2000/svg">
<path fill-rule="evenodd" clip-rule="evenodd" d="M1920 88.9735C1920 88.9735 1736.09 122.384 1532.68 144.947C1437.54 155.5 1362.87 144.697 1290.94 134.29C1209.08 122.447 1130.78 111.119 1029.92 132.364C950.849 149.019 874.391 192.033 804.279 231.478C746.35 264.068 692.754 294.222 645.596 305.057C643.005 305.652 640.395 306.254 637.765 306.861C534.573 330.663 401.021 361.469 236.786 259.497C139.328 198.987 34.8796 187.036 1.39515 195.714L-4.10229 769.333C-2.75363 770.412 -1.39086 771.472 -0.0142622 772.515L-0.014246 1049.5C8.44386 1047.35 17.8165 1044.85 28.0208 1042.13C99.6125 1023.04 212.143 993.03 337.014 995.655C351.4 995.935 365.82 996.344 380.239 996.754C509.791 1000.43 639.234 1004.11 742.613 913.626C783.407 877.688 820.548 837.078 857.177 797.028C922.832 725.242 986.841 655.254 1067.29 617.193C1144.19 580.971 1256.49 593.897 1365.84 606.484C1436.11 614.572 1505.16 622.52 1562.81 617.193C1687.29 605.691 1768.86 558.011 1865.08 501.762C1882.76 491.428 1900.94 480.804 1919.96 470.062L1919.97 470.062L1920 458.661C1920 458.659 1920 458.659 1920 458.659V456.134L1920.49 249.149L1920.48 249.15C1920.45 249.156 1920.29 249.189 1920 249.247V88.9735Z" fill="#111926"/>
</svg>
